#!OML:ASF F:\VICON\USERDATA\INSTALL\rory3\rory3.ASF
:FULLY-SPECIFIED
:DEGREES
539
root 0.264343 15.8832 -4.0974 -11.8955 -39.0299 -0.110699
lowerback 17.395 3.9553 -9.39085
upperback 9.47915 3.5016 -1.07182
thorax 0.0193447 1.32369 3.53473
lowerneck -19.0925 -6.76564 -14.4845
upperneck 14.6264 -7.01502 9.31834
head 8.54647 -3.2283 4.58796
rclavicle -4.37326e-014 6.36111e-015
rhumerus -18.1767 8.47544 -86.2736
rradius 59.5387
rwrist 35.9859
rhand -27.6191 10.6932
rfingers 7.12502
rthumb -1.01806 -19.2841
lclavicle -4.37326e-014 6.36111e-015
lhumerus -16.6924 -18.7623 88.4283
lradius 66.4158
lwrist -28.774
lhand -10.5947 22.3918
lfingers 7.12502
lthumb 15.4109 51.7974
rfemur -59.7775 -28.1117 22.2034
rtibia 113.305
rfoot 24.2233 -0.991164
rtoes 6.23871
lfemur -52.5706 39.0425 -9.99698
ltibia 115.229
lfoot 9.03371 -29.5485
ltoes -19.4957
540
root 0.276354 15.8941 -4.09052 -11.9344 -39.1862 -0.138102
lowerback 17.4445 3.98214 -9.44532
upperback 9.4267 3.51817 -1.10933
thorax -0.0649712 1.33566 3.51846
lowerneck -18.7398 -6.79183 -14.5903
upperneck 14.4147 -7.10689 9.53563
head 8.4388 -3.26347 4.67043
rclavicle -6.2816e-014 2.14687e-014
rhumerus -18.4525 8.37315 -86.2719
rradius 60.2541
rwrist 35.9807
rhand -27.2716 10.6773
rfingers 7.12502
rthumb -0.682454 -19.3013
lclavicle -6.2816e-014 2.14687e-014
lhumerus -16.8349 -18.4926 88.4533
lradius 66.4081
lwrist -28.8234
lhand -10.2934 22.4258
lfingers 7.12502
lthumb 15.7011 51.8088
rfemur -60.2232 -27.9736 22.047
rtibia 113.519
rfoot 23.8763 -1.09917
rtoes 6.0952
lfemur -52.3079 39.1546 -9.88987
ltibia 115.109
lfoot 8.54174 -29.7983
ltoes -20.3716
541
root 0.288019 15.8983 -4.08118 -12.15 -39.3083 -0.00301784
lowerback 17.4907 4.01973 -9.59331
upperback 9.4904 3.53548 -1.22198
thorax -0.0197979 1.33548 3.47697
lowerneck -18.6086 -6.89578 -14.6215
upperneck 14.2377 -7.30864 9.82507
head 8.39601 -3.33452 4.74724
rclavicle -5.12864e-014 4.77083e-015
rhumerus -18.5784 8.18602 -86.317
rradius 60.9819
rwrist 36.0623
rhand -27.1652 10.6736
rfingers 7.12502
rthumb -0.579623 -19.3054
lclavicle -5.12864e-014 4.77083e-015
lhumerus -16.7374 -18.262 88.2901
lradius 66.3449
lwrist -28.8798
lhand -10.1365 22.2751
lfingers 7.12502
lthumb 15.8522 51.6462
rfemur -60.6624 -27.9316 21.7086
rtibia 113.854
rfoot 23.5416 -1.12546
rtoes 6.42772
lfemur -51.9986 39.3004 -9.91456
ltibia 115.048
lfoot 8.15521 -29.8772
ltoes -20.9809
542
root 0.30107 15.896 -4.07341 -12.446 -39.4006 0.178985
lowerback 17.6067 4.0541 -9.78286
upperback 9.55275 3.53389 -1.2975
thorax -0.0129731 1.32484 3.49831
lowerneck -18.2479 -7.06088 -15.0386
upperneck 13.8481 -7.56113 10.3733
head 8.27741 -3.43141 4.97051
rclavicle -1.90833e-014 -1.82882e-014
rhumerus -18.8373 8.17903 -86.2487
rradius 61.8435
rwrist 36.0468
rhand -27.113 10.5826
rfingers 7.12502
rthumb -0.529243 -19.3965
lclavicle -1.90833e-014 -1.82882e-014
lhumerus -16.613 -18.0175 88.1466
lradius 66.2608
lwrist -29.087
lhand -9.85883 22.1722
lfingers 7.12502
lthumb 16.1196 51.5218
rfemur -61.1076 -27.8695 21.2957
rtibia 114.28
rfoot 23.0863 -1.12374
rtoes 7.32754
lfemur -51.5863 39.4894 -9.94175
ltibia 115.05
lfoot 7.85943 -29.839
ltoes -20.9009
543
root 0.315002 15.8911 -4.06452 -12.355 -39.5807 -0.104777
lowerback 17.6858 4.04295 -9.58232
upperback 9.5385 3.53931 -1.25406
thorax -0.0660967 1.33606 3.42831
lowerneck -17.9 -7.17928 -15.5267
upperneck 13.569 -7.72822 10.879
head 8.1903 -3.49769 5.20432
rclavicle -6.99722e-014 9.54166e-015
rhumerus -19.2248 8.2237 -86.1274
rradius 62.7318
rwrist 36.011
rhand -27.087 10.6302
rfingers 7.12502
rthumb -0.504069 -19.3489
lclavicle -6.99722e-014 9.54166e-015
lhumerus -16.6916 -17.8107 88.1518
lradius 66.2809
lwrist -29.1343
lhand -9.83372 22.413
lfingers 7.12502
lthumb 16.1438 51.7606
rfemur -61.6305 -27.5382 21.3884
rtibia 114.707
rfoot 22.4285 -0.807369
rtoes 7.11212
lfemur -51.2434 39.7918 -9.54811
ltibia 115.128
lfoot 7.46115 -29.8408
ltoes -20.5139
544
root 0.329054 15.8936 -4.05508 -12.0956 -39.8549 -0.547843
lowerback 17.6914 4.00945 -9.25042
upperback 9.54832 3.54591 -1.21117
thorax -0.050812 1.34893 3.28837
lowerneck -17.9762 -7.23003 -15.545
upperneck 13.5412 -7.78796 10.9245
head 8.20545 -3.5202 5.2129
rclavicle 2.3059e-014 -2.54444e-014
rhumerus -19.4318 8.27044 -86.0539
rradius 63.5486
rwrist 36.0735
rhand -27.0722 10.8781
rfingers 7.12502
rthumb -0.489792 -19.1011
lclavicle 2.3059e-014 -2.54444e-014
lhumerus -16.7754 -17.677 88.0614
lradius 66.4066
lwrist -28.8655
lhand -10.0641 22.7586
lfingers 7.12502
lthumb 15.9219 52.1241
rfemur -62.2222 -27.1682 21.6769
rtibia 115.131
rfoot 21.5885 -0.670794
rtoes 7.49081
lfemur -50.9681 40.1495 -9.02523
ltibia 115.211
lfoot 7.15021 -29.7825
ltoes -20.1384
545
root 0.34207 15.8985 -4.04788 -12.1724 -39.9527 -0.485169
lowerback 17.6615 3.97363 -9.33093
upperback 9.61031 3.48967 -1.2632
thorax 0.0393277 1.31222 3.29139
lowerneck -18.0324 -7.25677 -15.4269
upperneck 13.4097 -7.8189 10.8263
head 8.16602 -3.53455 5.15208
rclavicle -1.03368e-013 -1.11319e-014
rhumerus -19.5034 8.25242 -86.0268
rradius 64.323
rwrist 36.3003
rhand -27.0264 10.9372
rfingers 7.12502
rthumb -0.445586 -19.0421
lclavicle -1.03368e-013 -1.11319e-014
lhumerus -16.7897 -17.5 87.889
lradius 66.5211
lwrist -28.6597
lhand -10.1225 22.7216
lfingers 7.12502
lthumb 15.8657 52.0915
rfemur -62.8738 -27.131 21.4711
rtibia 115.65
rfoot 20.6919 -0.760636
rtoes 8.31419
lfemur -50.7632 40.2826 -9.0946
ltibia 115.24
lfoot 6.95181 -29.4657
ltoes -19.5683
546
root 0.35694 15.8998 -4.04185 -12.2236 -39.9207 -0.394283
lowerback 17.6086 3.90399 -9.45868
upperback 9.66393 3.38673 -1.29401
thorax 0.135519 1.25047 3.35272
lowerneck -17.9972 -7.29642 -15.2741
upperneck 13.2344 -7.88562 10.7131
head 8.09904 -3.56786 5.0763
rclavicle 1.19271e-014 -6.36111e-015
rhumerus -19.5896 8.24636 -85.9771
rradius 65.138
rwrist 36.585
rhand -26.9649 10.6656
rfingers 7.12502
rthumb -0.386199 -19.3138
lclavicle 1.19271e-014 -6.36111e-015
lhumerus -16.7237 -17.3329 87.718
lradius 66.5392
lwrist -28.6795
lhand -9.94776 22.4593
lfingers 7.12502
lthumb 16.034 51.8159
rfemur -63.6375 -27.2548 21.2576
rtibia 116.218
rfoot 19.9792 -0.649885
rtoes 8.04753
lfemur -50.8113 40.2849 -9.36003
ltibia 115.25
lfoot 6.97173 -29.0794
ltoes -19.0778
547
root 0.374516 15.9019 -4.03769 -12.0647 -39.9404 -0.660144
lowerback 17.6575 3.79336 -9.30834
upperback 9.62783 3.26006 -1.2285
thorax 0.0874589 1.19484 3.36002
lowerneck -17.8371 -7.34887 -15.2678
upperneck 13.1777 -7.98075 10.7131
head 8.06566 -3.61691 5.06329
rclavicle -3.97569e-015 9.54166e-015
rhumerus -19.7871 8.33927 -85.9406
rradius 65.8919
rwrist 36.9279
rhand -27.2402 10.3893
rfingers 7.12502
rthumb -0.652121 -19.5895
lclavicle -3.97569e-015 9.54166e-015
lhumerus -16.7922 -17.0481 87.6613
lradius 66.5549
lwrist -28.6977
lhand -9.71946 22.4077
lfingers 7.12502
lthumb 16.2538 51.7464
rfemur -64.3568 -27.3228 21.3388
rtibia 116.76
rfoot 19.4769 -0.436542
rtoes 8.02301
lfemur -51.0044 40.3542 -9.30979
ltibia 115.3
lfoot 7.10852 -28.8019
ltoes -18.8461
